<svg xmlns="http://www.w3.org/2000/svg" width="100" height="100" viewBox="0 0 64 64">
  <circle cx="32" cy="32" r="30" fill="#ff6347"/>
  <path d="M32 8c-13.2 0-24 10.8-24 24s10.8 24 24 24 24-10.8 24-24S45.2 8 32 8zM32 54c-12.2 0-22-9.8-22-22S19.8 10 32 10s22 9.8 22 22-9.8 22-22 22z" fill="#e53e3e"/>
  <path d="M32 16c-8.8 0-16 7.2-16 16s7.2 16 16 16 16-7.2 16-16-7.2-16-16-16z" fill="#c53030"/>
  <path d="M25 29c0-3.313 2.687-6 6-6s6 2.687 6 6c0 2.895-2.105 5.285-5 5.885V38h-2v-3.115c-2.895-.6-5-2.99-5-5.885zm6 3c1.657 0 3-1.343 3-3s-1.343-3-3-3-3 1.343-3 3 1.343 3 3 3z" fill="#fff"/>
</svg>
