<svg xmlns="http://www.w3.org/2000/svg" width="100" height="100" viewBox="0 0 64 64">
  <circle cx="32" cy="32" r="30" fill="#87ceeb"/>
  <path d="M32 8c-13.2 0-24 10.8-24 24s10.8 24 24 24 24-10.8 24-24S45.2 8 32 8zM32 54c-12.2 0-22-9.8-22-22S19.8 10 32 10s22 9.8 22 22-9.8 22-22 22z" fill="#4682b4"/>
  <circle cx="32" cy="32" r="16" fill="#fff"/>
  <circle cx="32" cy="32" r="10" fill="#000"/>
  <circle cx="32" cy="32" r="4" fill="#87ceeb"/>
  <circle cx="32" cy="32" r="2" fill="#000"/>
  <path d="M32 20c-1.105 0-2 .895-2 2s.895 2 2 2 2-.895 2-2-.895-2-2-2zm-6 24c-1.105 0-2 .895-2 2s.895 2 2 2 2-.895 2-2-.895-2-2-2zm12 0c-1.105 0-2 .895-2 2s.895 2 2 2 2-.895 2-2-.895-2-2-2z" fill="#fff"/>
</svg>
